<svg id="图层_1" data-name="图层 1" xmlns="http://www.w3.org/2000/svg" viewBox="0 0 30 31.88">
<title>顺时针</title>
<path d="M39.68,19.88l-3,1a12.55,12.55,0,0,1-2.84,12.67,11.58,11.58,0,0,1-16.78,0,12.67,12.67,0,0,1,0-17.41,11.56,11.56,0,0,1,15-1.5l-2.4,1,1,2.58,6.68-2.78L34.69,8.56l-2.49,1,.68,1.75a14.64,14.64,0,0,0-18,2.53,16,16,0,0,0,0,22,14.63,14.63,0,0,0,21.21,0A15.88,15.88,0,0,0,39.68,19.88ZM21.33,28.19a2.2,2.2,0,0,1-1.51-.7L18.6,28.94a3.93,3.93,0,0,0,2.88,1.22c2,0,3.88-1.71,3.88-5.41s-1.81-5.16-3.66-5.16A3.21,3.21,0,0,0,18.47,23c0,2.19,1.22,3.2,2.87,3.2a2.55,2.55,0,0,0,1.87-1C23.12,27.45,22.33,28.19,21.33,28.19Zm.46-3.66c-.66,0-1.19-.39-1.19-1.49s.53-1.63,1.15-1.63,1.22.48,1.42,2.17A1.6,1.6,0,0,1,21.79,24.53Zm4.74.29c0,3.5,1.4,5.34,3.47,5.34s3.48-1.84,3.48-5.34S32.07,19.59,30,19.59,26.53,21.32,26.53,24.82Zm4.74,0c0,2.79-.57,3.45-1.27,3.45s-1.25-.66-1.25-3.45.55-3.35,1.25-3.35S31.27,22,31.27,24.82Z" transform="translate(-10.49 -8.56)"/>
</svg>