<svg id="图层_1" data-name="图层 1" xmlns="http://www.w3.org/2000/svg" viewBox="0 0 30 31.88">
    <title>逆时针</title>
    <path d="M35.62,14.38a14.64,14.64,0,0,0-18-2.53l.68-1.75-2.49-1L13.11,16l6.67,2.79,1-2.59-2.4-1a11.55,11.55,0,0,1,15,1.49,12.67,12.67,0,0,1,0,17.41,11.58,11.58,0,0,1-16.78,0,12.55,12.55,0,0,1-2.84-12.67l-3-1a15.88,15.88,0,0,0,3.6,16,14.63,14.63,0,0,0,21.21,0A16,16,0,0,0,35.62,14.38ZM20.84,28.69a2.2,2.2,0,0,1-1.51-.7l-1.22,1.45A3.94,3.94,0,0,0,21,30.66c2,0,3.87-1.71,3.87-5.41s-1.81-5.15-3.66-5.15A3.2,3.2,0,0,0,18,23.54c0,2.19,1.22,3.2,2.87,3.2a2.55,2.55,0,0,0,1.87-1C22.63,28,21.84,28.69,20.84,28.69ZM21.3,25c-.66,0-1.19-.39-1.19-1.49s.53-1.63,1.15-1.63,1.23.48,1.42,2.17A1.6,1.6,0,0,1,21.3,25ZM33,25.32c0-3.47-1.41-5.22-3.48-5.22S26,21.82,26,25.32s1.4,5.34,3.47,5.34S33,28.82,33,25.32Zm-4.73,0c0-2.78.55-3.35,1.25-3.35s1.27.57,1.27,3.35-.57,3.45-1.27,3.45S28.26,28.11,28.26,25.32Z" transform="translate(-10 -9.06)"/>
</svg>